<svg xmlns="http://www.w3.org/2000/svg" viewBox="0 0 512 512">
  <defs>
    <linearGradient id="day" x1="0" y1="0" x2="0" y2="1"><stop offset="0" stop-color="#FFD66B"/><stop offset="1" stop-color="#FF8C42"/></linearGradient>
    <linearGradient id="night" x1="0" y1="0" x2="0" y2="1"><stop offset="0" stop-color="#3B2D8F"/><stop offset="1" stop-color="#16123F"/></linearGradient>
    <clipPath id="l"><path d="M0 0H512L0 512z"/></clipPath>
    <clipPath id="r"><path d="M512 0V512H0z"/></clipPath>
  </defs>
  <rect width="512" height="512" fill="url(#night)"/>
  <rect width="512" height="512" fill="url(#day)" clip-path="url(#l)"/>
  <g clip-path="url(#l)">
    <circle cx="170" cy="170" r="72" fill="#fff"/>
    <g stroke="#fff" stroke-width="16" stroke-linecap="round">
      <path d="M170 60v-24M170 304v-24M60 170H36M304 170h-24M92 92 75 75M248 248l17 17M248 92l17-17M92 248l-17 17"/>
    </g>
  </g>
  <g clip-path="url(#r)">
    <path d="M380 290a80 80 0 1 0 50 140 64 64 0 1 1-50-140z" fill="#fff"/>
    <g fill="#fff"><circle cx="300" cy="420" r="6"/><circle cx="450" cy="300" r="5"/><circle cx="420" cy="230" r="4"/><circle cx="240" cy="470" r="4"/></g>
  </g>
</svg>
